<svg width="122" height="30" viewBox="0 0 122 30" fill="none" xmlns="http://www.w3.org/2000/svg">
<path d="M29.3122 12.9756C29.5218 12.2622 29.3122 11.739 28.3211 11.739H25.0379C24.2025 11.739 23.8207 12.1916 23.6111 12.6887C23.6111 12.6887 21.9418 16.8604 19.5764 19.5653C18.8128 20.3524 18.464 20.601 18.0478 20.601C17.8397 20.601 17.5373 20.3524 17.5373 19.639V12.9756C17.5373 12.1195 17.2963 11.739 16.6001 11.739H11.441C10.92 11.739 10.6056 12.1349 10.6056 12.5123C10.6056 13.3224 11.7883 13.5096 11.9096 15.7926V20.7452C11.9096 21.8299 11.7195 22.0278 11.3003 22.0278C10.1879 22.0278 7.48112 17.8408 5.87471 13.0477C5.56181 12.1164 5.24592 11.7405 4.40753 11.7405H1.12584C0.18714 11.7405 0 12.1932 0 12.6903C0 13.5832 1.11236 18.0019 5.18154 23.8459C7.89433 27.8366 11.7135 29.9999 15.1928 29.9999C17.2783 29.9999 17.5358 29.5197 17.5358 28.6912V25.6748C17.5358 24.7143 17.7349 24.521 18.3951 24.521C18.8802 24.521 19.7156 24.7726 21.6634 26.6951C23.8881 28.975 24.2564 29.9984 25.5065 29.9984H28.7882C29.7254 29.9984 30.194 29.5181 29.9245 28.5699C29.6295 27.6264 28.5666 26.2532 27.1563 24.6284C26.3898 23.7017 25.2445 22.7044 24.8956 22.2058C24.4091 21.5629 24.5498 21.2791 24.8956 20.7084C24.8971 20.7099 28.896 14.938 29.3122 12.9756Z" fill="#EF7C00"/>
<path d="M72.2609 0.842911C72.2609 0.62197 72.1734 0.410078 72.0178 0.253849C71.8621 0.0976202 71.651 0.00985146 71.4308 0.00985146H67.2806C65.1908 -0.0946294 63.1447 0.635298 61.5894 2.04015C60.0341 3.445 59.0961 5.41057 58.9802 7.50739V12.0059H54.83C54.6099 12.0059 54.3988 12.0937 54.2431 12.2499C54.0875 12.4061 54 12.618 54 12.839V17.1709C54 17.3918 54.0875 17.6037 54.2431 17.7599C54.3988 17.9162 54.6099 18.0039 54.83 18.0039H58.9802V29.1669C58.9802 29.3879 59.0677 29.5998 59.2233 29.756C59.379 29.9122 59.5901 30 59.8103 30H64.7905C65.0107 30 65.2218 29.9122 65.3774 29.756C65.5331 29.5998 65.6206 29.3879 65.6206 29.1669V18.0039H69.97C70.1545 18.0066 70.3347 17.9474 70.4821 17.8358C70.6294 17.7241 70.7354 17.5664 70.7834 17.3875L71.9787 13.0556C72.0117 12.9325 72.0161 12.8034 71.9916 12.6783C71.9671 12.5533 71.9144 12.4355 71.8374 12.3341C71.7604 12.2327 71.6613 12.1504 71.5476 12.0935C71.434 12.0366 71.3088 12.0066 71.1818 12.0059H65.6206V7.50739C65.6618 7.09499 65.8548 6.71284 66.1618 6.43556C66.4687 6.15829 66.8677 6.0058 67.2806 6.00788H71.4308C71.651 6.00788 71.8621 5.92011 72.0178 5.76388C72.1734 5.60765 72.2609 5.39576 72.2609 5.17482V0.842911Z" fill="#EF7C00"/>
<path d="M101.768 7.97092C101.768 9.43309 100.791 10.6915 99.0131 10.6915C97.3403 10.6915 96.2609 9.50469 96.2609 8.04251C96.2609 6.54178 97.3072 5.21729 99.0145 5.21729C100.722 5.21729 101.735 6.47019 101.768 7.97092ZM96.2609 30V12.1014H101.768V30H96.2609Z" fill="#EF7C00"/>
<path d="M104.522 18.2191C104.522 16.0919 104.451 14.3145 104.381 12.7793H109.329L109.575 15.1516H109.679C110.376 14.035 112.083 12.3979 114.941 12.3979C118.427 12.3979 121.043 14.7317 121.043 19.7529V29.9992H115.536V20.5528C115.536 18.3582 114.7 16.684 112.783 16.684C111.32 16.684 110.588 17.868 110.204 18.8442C110.063 19.1939 110.029 19.6813 110.029 20.1701V29.9992H104.522V18.2191Z" fill="#EF7C00"/>
</svg>
